<?xml version="1.0" encoding="UTF-8"?>
<!DOCTYPE svg PUBLIC "-//W3C//DTD SVG 1.1//EN" "http://www.w3.org/Graphics/SVG/1.1/DTD/svg11.dtd">
<svg xmlns="http://www.w3.org/2000/svg" version="1.1" width="1500px" height="1200px" style="shape-rendering:geometricPrecision; text-rendering:geometricPrecision; image-rendering:optimizeQuality; fill-rule:evenodd; clip-rule:evenodd" xmlns:xlink="http://www.w3.org/1999/xlink">
<g><path style="opacity:0.994" fill="#005396" d="M 749.5,85.5 C 752.614,86.0913 755.114,87.758 757,90.5C 793.85,135.855 820.516,186.855 837,243.5C 857.158,313.757 865.658,385.424 862.5,458.5C 788.5,458.5 714.5,458.5 640.5,458.5C 636.749,367.004 651.583,278.671 685,193.5C 701.211,154.034 722.711,118.034 749.5,85.5 Z"/></g>
<g><path style="opacity:0.99" fill="#005396" d="M 270.5,269.5 C 337.091,280.307 399.758,302.14 458.5,335C 510.56,366.391 553.56,407.391 587.5,458C 497.5,458.667 407.5,458.667 317.5,458C 291.256,397.856 275.589,335.023 270.5,269.5 Z"/></g>
<g><path style="opacity:0.991" fill="#005396" d="M 1233.5,270.5 C 1235.83,270.5 1238.17,270.5 1240.5,270.5C 1233.24,335.711 1216.24,398.211 1189.5,458C 1097.83,458.667 1006.17,458.667 914.5,458C 974.001,375.539 1052.67,319.539 1150.5,290C 1177.95,282.015 1205.62,275.515 1233.5,270.5 Z"/></g>
<g><path style="opacity:0.987" fill="#005396" d="M 337.5,513.5 C 613.667,512.167 890,512.167 1166.5,513.5C 1158.47,531.068 1148.81,547.568 1137.5,563C 880.833,563.667 624.167,563.667 367.5,563C 356.344,547.185 346.344,530.685 337.5,513.5 Z"/></g>
<g><path style="opacity:0.985" fill="#005396" d="M 403.5,613.5 C 635.168,613.167 866.834,613.5 1098.5,614.5C 1083.34,630.726 1067.01,645.559 1049.5,659C 850.167,659.667 650.833,659.667 451.5,659C 437.683,648.664 424.517,637.497 412,625.5C 408.533,621.88 405.7,617.88 403.5,613.5 Z"/></g>
<g><path style="opacity:0.97" fill="#005396" d="M 515.5,701.5 C 572.332,700.335 629.332,700.168 686.5,701C 689.777,723.051 692.444,745.218 694.5,767.5C 630.762,756.147 571.096,734.147 515.5,701.5 Z"/></g>
<g><path style="opacity:0.968" fill="#005396" d="M 702.5,700.5 C 734.168,700.333 765.835,700.5 797.5,701C 786.929,722.871 774.762,743.705 761,763.5C 758.347,767.152 755.347,770.486 752,773.5C 731.758,751.749 715.258,727.415 702.5,700.5 Z"/></g>
<g><path style="opacity:0.97" fill="#005396" d="M 815.5,700.5 C 872.501,700.333 929.501,700.5 986.5,701C 949.432,722.584 910.099,738.917 868.5,750C 847.791,755.553 826.958,760.386 806,764.5C 808.834,743.159 812.001,721.825 815.5,700.5 Z"/></g>
<g><path style="opacity:0.891" fill="#005396" d="M 1245.5,801.5 C 1267.52,801.737 1283.02,811.737 1292,831.5C 1299.41,857.309 1291.57,876.809 1268.5,890C 1239.48,899.735 1218.31,890.902 1205,863.5C 1198.66,841.018 1204.82,822.851 1223.5,809C 1230.45,804.962 1237.78,802.462 1245.5,801.5 Z M 1240.5,811.5 C 1267.66,809.338 1283.33,821.672 1287.5,848.5C 1283.65,874.519 1268.65,886.686 1242.5,885C 1221.24,879.301 1211.07,865.468 1212,843.5C 1215.05,826.958 1224.55,816.292 1240.5,811.5 Z M 1240.5,832.5 C 1246.26,832.149 1251.93,832.649 1257.5,834C 1260.31,837.294 1259.98,840.294 1256.5,843C 1251.22,844.095 1245.89,844.595 1240.5,844.5C 1240.5,840.5 1240.5,836.5 1240.5,832.5 Z"/></g>
<g><path style="opacity:0.94" fill="#005396" d="M 1229.5,823.5 C 1240.17,823.333 1250.84,823.5 1261.5,824C 1265.69,825.526 1268.53,828.359 1270,832.5C 1272.66,842.348 1269.16,848.848 1259.5,852C 1265.34,858.174 1270.34,865.007 1274.5,872.5C 1270.2,873.661 1265.87,873.828 1261.5,873C 1257.32,866.311 1252.65,859.978 1247.5,854C 1245.44,853.689 1243.44,853.189 1241.5,852.5C 1240.5,859.468 1240.17,866.468 1240.5,873.5C 1236.83,873.5 1233.17,873.5 1229.5,873.5C 1229.5,856.833 1229.5,840.167 1229.5,823.5 Z M 1240.5,832.5 C 1240.5,836.5 1240.5,840.5 1240.5,844.5C 1245.89,844.595 1251.22,844.095 1256.5,843C 1259.98,840.294 1260.31,837.294 1257.5,834C 1251.93,832.649 1246.26,832.149 1240.5,832.5 Z"/></g>
<g><path style="opacity:0.975" fill="#005396" d="M 603.5,838.5 C 616.167,838.5 628.833,838.5 641.5,838.5C 641.5,909.5 641.5,980.5 641.5,1051.5C 628.833,1051.5 616.167,1051.5 603.5,1051.5C 603.804,1045.42 603.304,1039.42 602,1033.5C 577.803,1053.54 550.636,1058.71 520.5,1049C 478.241,1029.99 461.074,997.49 469,951.5C 479.105,918.062 501.271,897.895 535.5,891C 560.229,887.932 582.563,893.765 602.5,908.5C 603.5,885.176 603.833,861.843 603.5,838.5 Z M 546.5,923.5 C 577.664,924.668 594.997,940.668 598.5,971.5C 595.51,1000.49 579.51,1016.49 550.5,1019.5C 521.513,1016.51 505.513,1000.51 502.5,971.5C 505.325,944.445 519.992,928.445 546.5,923.5 Z"/></g>
<g><path style="opacity:0.975" fill="#005396" d="M 660.5,838.5 C 673.833,838.5 687.167,838.5 700.5,838.5C 700.5,851.833 700.5,865.167 700.5,878.5C 687.167,878.5 673.833,878.5 660.5,878.5C 660.5,865.167 660.5,851.833 660.5,838.5 Z"/></g>
<g><path style="opacity:0.976" fill="#005396" d="M 845.5,838.5 C 858.167,838.5 870.833,838.5 883.5,838.5C 883.5,909.167 883.5,979.833 883.5,1050.5C 870.833,1050.5 858.167,1050.5 845.5,1050.5C 845.829,1044.46 845.496,1038.46 844.5,1032.5C 814.732,1056.78 782.732,1059.94 748.5,1042C 715.34,1019.16 703.173,987.993 712,948.5C 727.104,907.421 756.604,887.921 800.5,890C 816.655,892.216 831.321,898.049 844.5,907.5C 845.5,884.51 845.833,861.51 845.5,838.5 Z M 786.5,923.5 C 813.946,922.794 831.779,935.46 840,961.5C 842.347,995.658 826.514,1014.99 792.5,1019.5C 763.926,1015.76 747.926,999.593 744.5,971C 747.11,944.9 761.11,929.067 786.5,923.5 Z"/></g>
<g><path style="opacity:0.978" fill="#005396" d="M 970.5,883.5 C 987.813,882.595 1004.15,886.095 1019.5,894C 1022.63,896.128 1025.46,898.628 1028,901.5C 1028.5,896.845 1028.67,892.179 1028.5,887.5C 1041.17,887.5 1053.83,887.5 1066.5,887.5C 1066.23,941.841 1066.57,996.175 1067.5,1050.5C 1054.49,1050.46 1041.49,1050.8 1028.5,1051.5C 1028.67,1047.15 1028.5,1042.82 1028,1038.5C 1009.13,1051.42 988.297,1056.26 965.5,1053C 927.448,1045.28 904.281,1022.45 896,984.5C 890.985,947.72 903.152,918.22 932.5,896C 944.312,888.895 956.979,884.729 970.5,883.5 Z M 972.5,921.5 C 1005.18,920.514 1023.85,936.181 1028.5,968.5C 1024.63,1000.55 1006.63,1016.38 974.5,1016C 951.327,1011.49 937.494,997.661 933,974.5C 932.261,946.413 945.428,928.746 972.5,921.5 Z"/></g>
<g><path style="opacity:0.977" fill="#005396" d="M 350.5,884.5 C 368.996,882.367 386.662,885.2 403.5,893C 407.325,895.825 410.825,898.992 414,902.5C 414.499,897.845 414.666,893.179 414.5,888.5C 427.167,888.5 439.833,888.5 452.5,888.5C 453.141,942.831 453.475,997.164 453.5,1051.5C 440.5,1051.5 427.5,1051.5 414.5,1051.5C 414.666,1047.15 414.499,1042.82 414,1038.5C 407.805,1044.02 400.639,1047.85 392.5,1050C 350.882,1061.35 317.716,1049.52 293,1014.5C 280.446,990.16 278.113,964.827 286,938.5C 297.749,908.564 319.249,890.564 350.5,884.5 Z M 362.5,921.5 C 396.125,923.29 413.292,940.957 414,974.5C 409.806,996.361 396.972,1010.19 375.5,1016C 342.077,1017.92 323.077,1002.25 318.5,969C 321.477,942.142 336.143,926.309 362.5,921.5 Z"/></g>
<g><path style="opacity:0.971" fill="#005396" d="M 1127.5,886.5 C 1158.83,881.326 1184.66,890.659 1205,914.5C 1209.68,922.54 1212.18,931.207 1212.5,940.5C 1199.5,940.667 1186.5,940.5 1173.5,940C 1169.82,925.486 1160.48,917.653 1145.5,916.5C 1138.56,916.866 1131.9,918.366 1125.5,921C 1115.63,929.185 1115.63,936.852 1125.5,944C 1130.37,945.802 1135.37,947.135 1140.5,948C 1157.97,949.636 1174.97,953.303 1191.5,959C 1208.67,967.809 1217.33,981.976 1217.5,1001.5C 1214.82,1034.02 1197.15,1051.85 1164.5,1055C 1153.17,1055.67 1141.83,1055.67 1130.5,1055C 1096.9,1049.23 1078.23,1029.4 1074.5,995.5C 1087.83,995.5 1101.17,995.5 1114.5,995.5C 1121.3,1020.64 1137.3,1029.14 1162.5,1021C 1176.49,1015.67 1179.15,1007 1170.5,995C 1154.23,989.479 1137.57,985.479 1120.5,983C 1114.71,981.738 1109.05,980.072 1103.5,978C 1078.69,961.471 1072.86,939.637 1086,912.5C 1095.71,897.07 1109.55,888.403 1127.5,886.5 Z"/></g>
<g><path style="opacity:0.977" fill="#005396" d="M 660.5,888.5 C 673.833,888.5 687.167,888.5 700.5,888.5C 700.5,942.833 700.5,997.167 700.5,1051.5C 687.167,1051.5 673.833,1051.5 660.5,1051.5C 660.5,997.167 660.5,942.833 660.5,888.5 Z"/></g>
</svg>
